<svg id="Calque_1" data-name="Calque 1" xmlns="http://www.w3.org/2000/svg" viewBox="0 0 726.39 106.72"><title>bouton_valider</title><path d="M191.43,72.2l-19.2-40.36h23.38l11.12,24.9,10.52-24.9h21.37L220.89,72.2Z"/><path d="M271,67.37H250.77l-2.12,4.83H227.83l19-40.36h29L296.07,72.2h-23Zm-10.2-23.11-4.83,11.17h9.76Z"/><path d="M318.09,31.84v26h28V72.2h-48.6V31.84Z"/><path d="M369.95,72.2H349.39V31.84h20.56Z"/><path d="M373.85,31.84h32.33c23.05,0,30.27,8.68,30.27,19.09v1.68c0,10-5.48,19.58-30.27,19.58H373.85Zm20.61,27.88h8.25c11.66,0,12.42-5.32,12.42-7.7v-.33c0-2.39-.92-7.32-12.42-7.32h-8.25Z"/><path d="M488.09,31.84V43.12H459.72v3.15h28V57.33h-28V60.8h28.59V72.2H439.43V31.84Z"/><path d="M512.39,72.2H491.78V31.84h44.59c8.68,0,15.89,2.17,15.89,10.2v.49c0,6-5.64,8.57-9.33,9.33,6.46,1.25,9.55,4.88,9.55,10.14v6.13a7.26,7.26,0,0,0,.71,3.74v.33H532c-.27-.27-.27-.65-.27-1.25V66.07c0-4.12-2-6.78-7.81-6.78h-11.5Zm15-24.25c2.82,0,3.74-1.08,3.74-2.55s-1-2.55-3.74-2.55h-15v5.1Z"/></svg>